<svg width="195" height="56" viewBox="0 0 195 56" fill="none" xmlns="http://www.w3.org/2000/svg">
<mask id="mask0_4625_333" style="mask-type:luminance" maskUnits="userSpaceOnUse" x="0" y="6" width="137" height="50">
<path d="M121.516 6.32812H15C6.71573 6.32812 0 13.0439 0 21.3281V40.4996C0 48.7838 6.71574 55.4996 15 55.4996H121.516C129.801 55.4996 136.516 48.7838 136.516 40.4995V21.3281C136.516 13.0439 129.801 6.32812 121.516 6.32812Z" fill="white"/>
</mask>
<g mask="url(#mask0_4625_333)">
<path d="M68.7298 15.1962C70.713 16.1229 72.3788 17.614 73.5185 19.4829C74.6753 21.4773 75.2564 23.7533 75.1973 26.0581C75.2503 28.3548 74.6692 30.6216 73.5179 32.6095C72.3879 34.4864 70.7194 35.98 68.7293 36.8962C66.4284 37.9349 63.9234 38.4429 61.3997 38.3827H59.7005C57.1043 38.3827 54.9998 40.4873 54.9998 43.0835V44.1078C54.9998 46.1382 53.3538 47.7842 51.3234 47.7842C49.293 47.7842 47.647 46.1382 47.647 44.1078V27.4392C47.647 19.8437 53.8043 13.6864 61.3997 13.6864C63.9261 13.6258 66.433 14.1422 68.7298 15.1962ZM66.0295 30.4185C67.179 29.3957 67.7539 27.9425 67.7543 26.0587C67.7543 24.1432 67.1794 22.6738 66.0295 21.6506C64.8797 20.6275 63.2003 20.1159 60.9914 20.1159H60.9182C57.6495 20.1159 54.9998 22.7656 54.9998 26.0343C54.9998 29.303 57.6495 31.9527 60.9182 31.9527H60.9914C63.1996 31.9527 64.8789 31.4413 66.0295 30.4185Z" fill="#FCF7E6"/>
<path d="M98.2548 24.0846C100.282 26.0172 101.296 28.9317 101.296 32.8281V44.469C101.296 46.2991 99.8124 47.7827 97.9823 47.7827H95.3329C94.966 47.7827 94.6686 47.4853 94.6686 47.1185C94.6686 46.4307 93.553 46.0738 93.0143 46.5013C91.6103 47.6154 89.6806 48.1724 87.2251 48.1724C85.5421 48.2141 83.8724 47.8647 82.3474 47.1515C81.044 46.5359 79.9479 45.5543 79.1928 44.3264C78.4571 43.0898 78.08 41.6729 78.1038 40.2343C78.0545 39.1427 78.2606 38.0548 78.7058 37.057C79.1509 36.0591 79.8228 35.179 80.668 34.4865C82.3763 33.0894 85.016 32.3909 88.5869 32.3909H92.1174C93.297 32.3909 94.323 31.4371 93.9157 30.3301C93.6733 29.6716 93.2959 29.071 92.8077 28.567C91.8696 27.6743 90.4627 27.2277 88.5869 27.2273C87.2803 27.2281 85.9833 27.4503 84.7511 27.8847C84.718 27.8957 84.685 27.9069 84.6521 27.9183C82.9355 28.5107 80.7912 28.0746 80.007 26.4366C79.4284 25.2281 79.7796 23.7521 80.9687 23.1346C81.8694 22.6668 82.8173 22.2915 83.7982 22.0156C85.6619 21.4632 87.5959 21.1842 89.5397 21.1875C93.3208 21.1875 96.2257 22.1536 98.2543 24.0858M92.2179 42.1575C93.0759 41.5973 93.7332 40.7829 94.1007 39.8325C94.1842 39.6166 94.2149 39.3849 94.2149 39.1534C94.2149 37.8662 93.1714 36.8227 91.8842 36.8227H89.3588C86.4537 36.8227 85.0012 37.8455 85.0012 39.8911C84.9836 40.3336 85.071 40.774 85.2563 41.1762C85.4417 41.5785 85.7196 41.9311 86.0675 42.2052C86.917 42.8159 87.9507 43.1163 88.9952 43.0559C90.1343 43.0762 91.2545 42.7629 92.2179 42.1547" fill="#FCF7E6"/>
<path d="M114.616 46.1023C112.02 44.6145 109.885 42.4404 108.443 39.8186C106.919 37.0364 106.145 33.9056 106.196 30.7337C106.145 27.5617 106.919 24.431 108.443 21.6487C109.885 19.0269 112.02 16.8528 114.616 15.365C117.097 14.0086 119.856 13.2395 122.681 13.117C125.506 12.9944 128.321 13.5218 130.91 14.6583C132.216 15.2643 133.425 16.0518 134.501 16.9937C135.768 18.1029 135.618 20.0285 134.422 21.2137C133.017 22.6057 130.745 22.3989 129.081 21.3293C127.517 20.3241 125.759 19.8212 123.807 19.8207C121.957 19.7897 120.135 20.2701 118.542 21.2092C116.999 22.1348 115.748 23.4771 114.934 25.0818C114.049 26.8322 113.605 28.7718 113.64 30.7325C113.605 32.6933 114.049 34.6329 114.934 36.3832C115.748 37.9879 116.999 39.3302 118.542 40.2559C120.135 41.1947 121.958 41.675 123.807 41.6438C125.757 41.6438 127.514 41.1356 129.077 40.1193C130.743 39.0361 133.027 38.8212 134.439 40.2198C135.628 41.3978 135.786 43.3092 134.535 44.4212C133.447 45.388 132.219 46.1933 130.888 46.8073C128.537 47.8698 125.981 48.4019 123.401 48.3659C120.324 48.4077 117.292 47.6258 114.619 46.1012" fill="#FCF7E6"/>
<path d="M14.6733 30.9146C14.6733 32.9406 16.3158 34.583 18.3418 34.583C20.3678 34.583 22.0103 32.9406 22.0103 30.9146C22.0103 28.8885 20.3678 27.2461 18.3418 27.2461C16.3158 27.2461 14.6733 28.8885 14.6733 30.9146Z" fill="#66CCC9"/>
<path d="M0 9.99659C0 12.0226 1.64243 13.665 3.66846 13.665C5.69449 13.665 7.33692 12.0226 7.33692 9.99659C7.33692 7.97055 5.69449 6.32812 3.66846 6.32812C1.64243 6.32812 0 7.97055 0 9.99659Z" fill="#66CCC9"/>
<path d="M37.0226 21.8479C35.5922 19.2853 33.4538 17.189 30.8632 15.8098C28.05 14.3394 24.9116 13.602 21.7379 13.6659H14.1279C10.3774 13.6659 7.33691 16.7064 7.33691 20.457V23.5795C7.33691 25.6055 8.97934 27.248 11.0054 27.248H11.1608C13.101 27.248 14.6738 25.6751 14.6738 23.7349C14.6738 21.7947 16.2467 20.2219 18.1869 20.2219H21.3761C24.5458 20.2219 27.0741 21.1825 28.9609 23.1037C30.8477 25.0249 31.7912 27.6282 31.7916 30.9136C31.7916 34.1994 30.848 36.8031 28.9609 38.7247C27.0737 40.6462 24.5454 41.608 21.3761 41.6099H18.1866C16.2466 41.6099 14.6738 40.0371 14.6738 38.0971C14.6738 36.157 13.1011 34.5843 11.1611 34.5843H11.0054C8.97934 34.5843 7.33691 36.2268 7.33691 38.2528V41.3742C7.33691 45.1242 10.3769 48.1641 14.1268 48.1641H21.7379C24.9116 48.2281 28.0501 47.4907 30.8632 46.0202C33.4537 44.6417 35.5922 42.546 37.0226 39.9838C38.5323 37.2034 39.289 34.0766 39.2176 30.9136C39.2886 27.7521 38.5319 24.6269 37.0226 21.8479Z" fill="#FCF7E6"/>
<path d="M40.3105 51.8325C40.3105 53.8586 41.953 55.501 43.979 55.501C46.005 55.501 47.6475 53.8586 47.6475 51.8325C47.6475 49.8065 46.005 48.1641 43.979 48.1641C41.953 48.1641 40.3105 49.8065 40.3105 51.8325Z" fill="#FCF7E6"/>
</g>
<path d="M178.436 48H169.313L166.942 40.3205H155.294L152.872 48H143.955L155.913 13.9833H166.53L178.436 48ZM156.943 34.2902H165.293L161.118 20.5289L156.943 34.2902ZM190.226 13.9833V48H181.361V13.9833H190.226Z" fill="#FCF7E6"/>
</svg>
