<svg width="63" height="63" viewBox="0 0 63 63" fill="none" xmlns="http://www.w3.org/2000/svg">
<g clip-path="url(#clip0_6215_13344)">
<g filter="url(#filter0_d_6215_13344)">
<circle cx="31.5" cy="31.5" r="31.5" fill="#334C66"/>
<mask id="mask0_6215_13344" style="mask-type:luminance" maskUnits="userSpaceOnUse" x="4" y="25" width="40" height="15">
<path d="M38.7231 25.8086H8.28623C5.91901 25.8086 4 27.7276 4 30.0948V35.573C4 37.9403 5.919 39.8593 8.28622 39.8593H38.7231C41.0903 39.8593 43.0093 37.9402 43.0093 35.573V30.0948C43.0093 27.7276 41.0903 25.8086 38.7231 25.8086Z" fill="white"/>
</mask>
<g mask="url(#mask0_6215_13344)">
<path d="M23.6416 28.3429C24.2083 28.6077 24.6843 29.0338 25.0099 29.5679C25.3405 30.1377 25.5065 30.7881 25.4897 31.4467C25.5048 32.103 25.3387 32.7507 25.0098 33.3188C24.6869 33.8551 24.2101 34.2819 23.6414 34.5437C22.984 34.8405 22.2682 34.9857 21.547 34.9685H21.0615C20.3196 34.9685 19.7182 35.5698 19.7182 36.3117V36.6044C19.7182 37.1846 19.2479 37.6549 18.6677 37.6549C18.0875 37.6549 17.6172 37.1846 17.6172 36.6044V31.8414C17.6172 29.671 19.3766 27.9115 21.547 27.9115C22.2689 27.8942 22.9853 28.0418 23.6416 28.3429ZM22.87 32.6927C23.1984 32.4004 23.3627 31.9852 23.3628 31.4469C23.3628 30.8995 23.1985 30.4797 22.87 30.1873C22.5414 29.8949 22.0615 29.7487 21.4303 29.7487H21.4094C20.4754 29.7487 19.7182 30.5059 19.7182 31.4399C19.7182 32.3739 20.4754 33.1311 21.4094 33.1311H21.4303C22.0613 33.1311 22.5412 32.985 22.87 32.6927Z" fill="#FCF7E6"/>
<path d="M32.0805 30.8825C32.6597 31.4348 32.9494 32.2676 32.9495 33.381V36.7074C32.9495 37.2303 32.5256 37.6542 32.0026 37.6542H31.2455C31.1407 37.6542 31.0557 37.5693 31.0557 37.4644C31.0557 37.2679 30.7369 37.1659 30.583 37.2881C30.1818 37.6064 29.6304 37.7656 28.9287 37.7656C28.4478 37.7775 27.9707 37.6776 27.535 37.4739C27.1625 37.298 26.8493 37.0175 26.6335 36.6666C26.4233 36.3133 26.3156 35.9084 26.3224 35.4973C26.3083 35.1854 26.3672 34.8745 26.4944 34.5894C26.6216 34.3042 26.8136 34.0527 27.0551 33.8549C27.5432 33.4556 28.2975 33.256 29.3179 33.256H30.3267C30.6638 33.256 30.957 32.9835 30.8406 32.6672C30.7713 32.479 30.6635 32.3074 30.524 32.1634C30.2559 31.9083 29.8539 31.7807 29.3179 31.7806C28.9445 31.7808 28.5739 31.8443 28.2218 31.9684C28.2124 31.9715 28.2029 31.9747 28.1935 31.978C27.703 32.1473 27.0903 32.0227 26.8662 31.5546C26.7008 31.2093 26.8012 30.7875 27.141 30.6111C27.3984 30.4774 27.6692 30.3702 27.9495 30.2913C28.4821 30.1335 29.0347 30.0538 29.5901 30.0547C30.6706 30.0547 31.5007 30.3308 32.0803 30.8829M30.3554 36.0468C30.6006 35.8868 30.7884 35.654 30.8934 35.3825C30.9173 35.3208 30.9261 35.2546 30.9261 35.1884C30.9261 34.8206 30.6279 34.5224 30.2601 34.5224H29.5384C28.7083 34.5224 28.2933 34.8147 28.2933 35.3992C28.2882 35.5257 28.3132 35.6515 28.3662 35.7664C28.4191 35.8814 28.4986 35.9821 28.598 36.0605C28.8407 36.235 29.1361 36.3208 29.4346 36.3036C29.7601 36.3094 30.0801 36.2198 30.3554 36.046" fill="#FCF7E6"/>
<path d="M36.7582 37.1727C36.0164 36.7475 35.4062 36.1263 34.9944 35.3771C34.5588 34.5821 34.3376 33.6875 34.3522 32.7811C34.3376 31.8747 34.5589 30.9801 34.9944 30.1851C35.4062 29.4359 36.0164 28.8146 36.7582 28.3895C37.4671 28.0019 38.2555 27.7822 39.0627 27.7471C39.8699 27.7121 40.6744 27.8628 41.4142 28.1876C41.7875 28.3607 42.1327 28.5858 42.4402 28.8549C42.8023 29.1719 42.7595 29.7221 42.4176 30.0608C42.0161 30.4586 41.3669 30.3994 40.8915 30.0938C40.4446 29.8066 39.9423 29.6629 39.3845 29.6627C38.856 29.6539 38.3354 29.7912 37.88 30.0595C37.439 30.324 37.0816 30.7075 36.8489 31.1661C36.5962 31.6662 36.4694 32.2205 36.4794 32.7808C36.4694 33.341 36.5962 33.8953 36.8489 34.3955C37.0816 34.854 37.439 35.2375 37.88 35.5021C38.3354 35.7703 38.856 35.9076 39.3845 35.8986C39.9418 35.8986 40.4438 35.7534 40.8905 35.463C41.3666 35.1535 42.0192 35.0921 42.4226 35.4917C42.7624 35.8284 42.8076 36.3745 42.4501 36.6923C42.1392 36.9685 41.7883 37.1986 41.4079 37.3741C40.7361 37.6777 40.0057 37.8298 39.2686 37.8195C38.3893 37.8314 37.5228 37.608 36.759 37.1723" fill="#FCF7E6"/>
<path d="M8.1875 32.8334C8.1875 33.4124 8.65682 33.8817 9.23576 33.8817C9.81469 33.8817 10.284 33.4124 10.284 32.8334C10.284 32.2545 9.81469 31.7852 9.23576 31.7852C8.65682 31.7852 8.1875 32.2545 8.1875 32.8334Z" fill="#66CCC9"/>
<path d="M4 26.8569C4 27.4358 4.46932 27.9051 5.04826 27.9051C5.62719 27.9051 6.09651 27.4358 6.09651 26.8569C6.09651 26.2779 5.62719 25.8086 5.04826 25.8086C4.46932 25.8086 4 26.2779 4 26.8569Z" fill="#66CCC9"/>
<path d="M14.5764 30.2414C14.1677 29.5092 13.5566 28.9101 12.8163 28.5161C12.0125 28.0959 11.1157 27.8852 10.2088 27.9034H8.03428C6.96255 27.9034 6.09375 28.7722 6.09375 29.844V30.7362C6.09375 31.3152 6.56307 31.7845 7.14201 31.7845H7.18641C7.74083 31.7845 8.19026 31.335 8.19026 30.7806C8.19026 30.2262 8.6397 29.7768 9.19412 29.7768H10.1054C11.0112 29.7768 11.7336 30.0513 12.2728 30.6003C12.8119 31.1492 13.0815 31.8931 13.0816 32.8319C13.0816 33.7708 12.812 34.5149 12.2728 35.0639C11.7335 35.613 11.0111 35.8878 10.1054 35.8884H9.19403C8.63967 35.8884 8.19026 35.439 8.19026 34.8846C8.19026 34.3302 7.74086 33.8808 7.1865 33.8808H7.14201C6.56307 33.8808 6.09375 34.3502 6.09375 34.9291V35.821C6.09375 36.8926 6.96241 37.7612 8.03395 37.7612H10.2088C11.1157 37.7795 12.0125 37.5688 12.8163 37.1486C13.5566 36.7547 14.1677 36.1559 14.5764 35.4237C15.0078 34.6292 15.224 33.7358 15.2036 32.8319C15.2239 31.9285 15.0077 31.0355 14.5764 30.2414Z" fill="#FCF7E6"/>
<path d="M15.5156 38.81C15.5156 39.3889 15.9849 39.8582 16.5639 39.8582C17.1428 39.8582 17.6121 39.3889 17.6121 38.81C17.6121 38.231 17.1428 37.7617 16.5639 37.7617C15.9849 37.7617 15.5156 38.231 15.5156 38.81Z" fill="#FCF7E6"/>
</g>
<path d="M54.982 38H52.3752L51.6977 35.8056H48.3693L47.6771 38H45.1292L48.546 28.2798H51.5799L54.982 38ZM48.8406 34.0825H51.2265L50.0335 30.1502L48.8406 34.0825ZM58.3511 28.2798V38H55.8179V28.2798H58.3511Z" fill="#FCF7E6"/>
</g>
</g>
<defs>
<filter id="filter0_d_6215_13344" x="-4.2" y="0" width="71.4" height="71.4" filterUnits="userSpaceOnUse" color-interpolation-filters="sRGB">
<feFlood flood-opacity="0" result="BackgroundImageFix"/>
<feColorMatrix in="SourceAlpha" type="matrix" values="0 0 0 0 0 0 0 0 0 0 0 0 0 0 0 0 0 0 127 0" result="hardAlpha"/>
<feOffset dy="4.2"/>
<feGaussianBlur stdDeviation="2.1"/>
<feComposite in2="hardAlpha" operator="out"/>
<feColorMatrix type="matrix" values="0 0 0 0 0 0 0 0 0 0 0 0 0 0 0 0 0 0 0.1 0"/>
<feBlend mode="normal" in2="BackgroundImageFix" result="effect1_dropShadow_6215_13344"/>
<feBlend mode="normal" in="SourceGraphic" in2="effect1_dropShadow_6215_13344" result="shape"/>
</filter>
<clipPath id="clip0_6215_13344">
<rect width="63" height="63" fill="white"/>
</clipPath>
</defs>
</svg>
