<svg width="24" height="24" viewBox="0 0 24 24" fill="none" xmlns="http://www.w3.org/2000/svg">
<circle cx="12.0571" cy="11.8188" r="11.5649" fill="#FCF7E6"/>
<path d="M7.18611 16.6881C6.85133 16.6881 6.56485 16.569 6.32665 16.3308C6.08846 16.0926 5.96916 15.8059 5.96875 15.4707V8.16658C5.96875 7.8318 6.08805 7.54532 6.32665 7.30712C6.56525 7.06893 6.85174 6.94962 7.18611 6.94922H10.8382L12.0555 8.16658H16.925C17.2597 8.16658 17.5464 8.28588 17.785 8.52448C18.0236 8.76308 18.1427 9.04956 18.1423 9.38393V15.4707C18.1423 15.8055 18.0232 16.0922 17.785 16.3308C17.5468 16.5694 17.2601 16.6885 16.925 16.6881H7.18611Z" fill="#334C66"/>
</svg>
